<svg width="18px" height="18px" viewBox="0 0 18 18" version="1.1" xmlns="http://www.w3.org/2000/svg" xmlns:xlink="http://www.w3.org/1999/xlink">
    <defs>
        <polygon id="path-1" points="0.003618 0.04815 18 0.04815 18 5.18247 0.003618 5.18247"></polygon>
        <polygon id="path-3" points="0.003672 0.15336 18 0.15336 18 5.287662 0.003672 5.287662"></polygon>
        <polygon id="path-5" points="7.2e-05 0.08568 18 0.08568 18 5.22 7.2e-05 5.22"></polygon>
    </defs>
    <g id="Page-1" stroke="none" stroke-width="1" fill="none" fill-rule="evenodd">
        <g id="jmt_rs_list" transform="translate(-339.000000, -99.000000)">
            <g id="Search" transform="translate(18.000000, 65.000000)">
                <g id="ic_filter" transform="translate(321.000000, 34.000000)">
                    <g id="Group-3" transform="translate(0.000000, 6.326712)">
                        <mask id="mask-2" fill="white">
                            <use xlink:href="#path-1"></use>
                        </mask>
                        <g id="Clip-2"></g>
                        <path d="M5.153058,2.61531 C5.153058,1.75707 5.850198,1.06011 6.708258,1.06011 C7.566498,1.06011 8.263458,1.75707 8.263458,2.61531 C8.263458,3.47355 7.566498,4.17051 6.708258,4.17051 C5.850198,4.17051 5.153058,3.47355 5.153058,2.61531 M9.226638,3.12129 L17.494038,3.12129 C17.775198,3.12129 18.000018,2.89647 18.000018,2.61531 C18.000018,2.33415 17.775198,2.10933 17.494038,2.10933 L9.226638,2.10933 C8.990658,0.93627 7.952418,0.04815 6.708258,0.04815 C5.463918,0.04815 4.425858,0.93627 4.189698,2.10933 L0.509598,2.10933 C0.228618,2.10933 0.003618,2.33415 0.003618,2.61531 C0.003618,2.89647 0.228618,3.12129 0.509598,3.12129 L4.189698,3.12129 C4.425858,4.29435 5.463918,5.18247 6.708258,5.18247 C7.948818,5.18247 8.990658,4.29813 9.226638,3.12129" id="Fill-1" fill="#F65641" mask="url(#mask-2)"></path>
                    </g>
                    <g id="Group-6" transform="translate(0.000000, 0.026712)">
                        <mask id="mask-4" fill="white">
                            <use xlink:href="#path-3"></use>
                        </mask>
                        <g id="Clip-5"></g>
                        <path d="M9.395352,2.720502 C9.395352,1.862262 10.092312,1.165302 10.950552,1.165302 C11.808792,1.165302 12.505932,1.862262 12.505932,2.720502 C12.505932,3.578742 11.808792,4.275702 10.950552,4.275702 C10.092312,4.275702 9.395352,3.574962 9.395352,2.720502 M13.469112,3.226482 L17.494092,3.226482 C17.775072,3.226482 18.000072,3.001662 18.000072,2.720502 C18.000072,2.439342 17.775072,2.214522 17.494092,2.214522 L13.469112,2.214522 C13.232772,1.041462 12.194712,0.153342 10.950552,0.153342 C9.706392,0.153342 8.668332,1.041462 8.432172,2.214522 L0.509652,2.214522 C0.228492,2.214522 0.003672,2.439342 0.003672,2.720502 C0.003672,3.001662 0.228492,3.226482 0.509652,3.226482 L8.435952,3.226482 C8.671932,4.399542 9.710172,5.287662 10.954512,5.287662 C12.198672,5.287662 13.232772,4.399542 13.469112,3.226482" id="Fill-4" fill="#F65641" mask="url(#mask-4)"></path>
                    </g>
                    <g id="Group-9" transform="translate(0.000000, 12.446712)">
                        <mask id="mask-6" fill="white">
                            <use xlink:href="#path-5"></use>
                        </mask>
                        <g id="Clip-8"></g>
                        <path d="M9.395352,2.65284 C9.395352,1.7946 10.092312,1.09746 10.950552,1.09746 C11.808792,1.09746 12.505932,1.7946 12.505932,2.65284 C12.505932,3.51108 11.808792,4.20804 10.950552,4.20804 C10.092312,4.20804 9.395352,3.51108 9.395352,2.65284 M13.469112,3.15882 L17.494092,3.15882 C17.775072,3.15882 18.000072,2.934 18.000072,2.65284 C18.000072,2.37168 17.775072,2.14686 17.494092,2.14686 L13.469112,2.14686 C13.232772,0.9738 12.194712,0.08568 10.950552,0.08568 C9.706392,0.08568 8.668332,0.9738 8.432172,2.14686 L0.505872,2.14686 C0.224712,2.14686 7.2e-05,2.37168 7.2e-05,2.65284 C7.2e-05,2.934 0.224712,3.15882 0.505872,3.15882 L8.435952,3.15882 C8.671932,4.3317 9.710172,5.22 10.954512,5.22 C12.198672,5.22 13.232772,4.33548 13.469112,3.15882" id="Fill-7" fill="#F65641" mask="url(#mask-6)"></path>
                    </g>
                </g>
            </g>
        </g>
    </g>
</svg>
