<svg width="16px" height="21px" viewBox="0 0 16 21" version="1.1" xmlns="http://www.w3.org/2000/svg" xmlns:xlink="http://www.w3.org/1999/xlink">
    <defs>
        <polygon id="path-1" points="6e-05 0.1333935 15.9374 0.1333935 15.9374 20.4999385 6e-05 20.4999385"></polygon>
    </defs>
    <g id="Page-1" stroke="none" stroke-width="1" fill="none" fill-rule="evenodd">
        <g id="jmt_rs_list" transform="translate(-18.000000, -66.000000)">
            <g id="Search" transform="translate(18.000000, 65.000000)">
                <g id="ic_location" transform="translate(8.000000, 11.500000) scale(-1, 1) translate(-8.000000, -11.500000) translate(0.000000, 1.000000)">
                    <g id="Group-3">
                        <mask id="mask-2" fill="white">
                            <use xlink:href="#path-1"></use>
                        </mask>
                        <g id="Clip-2"></g>
                        <path d="M14.67966,9.6291985 C14.67966,9.6376035 14.67546,9.6462135 14.67546,9.6546185 C14.67126,9.6761435 14.65866,9.7401035 14.63806,9.8385035 L14.63806,9.8469085 C14.53386,10.3253785 14.37966,10.7905235 14.17546,11.2388585 C14.17126,11.2431635 14.17126,11.2517735 14.16706,11.2558735 C13.38826,13.1474085 11.68026,16.0338085 7.96466,19.1805585 C4.24906,16.0338085 2.54106,13.1474085 1.76206,11.2558735 C1.75806,11.2517735 1.75806,11.2431635 1.75366,11.2388585 C1.55386,10.7950335 1.39966,10.3253785 1.29146,9.8469085 L1.29146,9.8385035 C1.26646,9.7401035 1.25806,9.6761435 1.25386,9.6546185 C1.25386,9.6462135 1.24966,9.6376035 1.24966,9.6248935 C1.16626,9.1851685 1.12486,8.7411385 1.12486,8.2925985 C1.12486,4.4287585 4.19466,1.2818035 7.96466,1.2818035 C11.73446,1.2818035 14.80446,4.4287585 14.80446,8.2925985 C14.80446,8.7452385 14.76286,9.1937785 14.67966,9.6291985 M7.96466,0.1333935 C3.57406,0.1333935 6e-05,3.7967435 6e-05,8.2971085 C6e-05,8.8094035 0.04586,9.3260035 0.14166,9.8298935 C0.14586,9.8596185 0.16246,9.9494085 0.19586,10.1033635 C0.31646,10.6539935 0.49566,11.1964235 0.72906,11.7128185 C1.58706,13.7837285 3.47406,16.9645085 7.61466,20.3716085 C7.71866,20.4570935 7.84386,20.4999385 7.96866,20.4999385 C8.09386,20.4999385 8.21866,20.4570935 8.32286,20.3716085 C12.45926,16.9645085 14.35046,13.7837285 15.20846,11.7128185 C15.44186,11.1964235 15.62106,10.6582985 15.74186,10.1033635 C15.77506,9.9494085 15.79186,9.8596185 15.79586,9.8298935 C15.88766,9.3260035 15.93746,8.8094035 15.93746,8.2971085 C15.92926,3.7967435 12.35506,0.1333935 7.96466,0.1333935" id="Fill-1" fill="#F65641" mask="url(#mask-2)"></path>
                    </g>
                    <path d="M8,12.3322721 C5.85426142,12.3322721 4.11192407,10.4984576 4.11192407,8.25 C4.11192407,6.00112715 5.85821633,4.16752027 8,4.16752027 C10.1415859,4.16752027 11.8880759,6.00112715 11.8880759,8.25 C11.8880759,10.4984576 10.1459363,12.3322721 8,12.3322721 M8,3 C5.24461143,3 3,5.356842 3,8.25 C3,11.1429504 5.24461143,13.5 8,13.5 C10.7553886,13.5 13,11.1429504 13,8.25 C13,5.356842 10.7553886,3 8,3" id="Fill-4" fill="#F65641"></path>
                </g>
            </g>
        </g>
    </g>
</svg>
