<svg width="16px" height="16px" viewBox="0 0 16 16" version="1.1" xmlns="http://www.w3.org/2000/svg" xmlns:xlink="http://www.w3.org/1999/xlink">
    <g id="Page-1" stroke="none" stroke-width="1" fill="none" fill-rule="evenodd">
        <g id="jmt_rs_list" transform="translate(-18.000000, -101.000000)" fill="#F65641">
            <g id="Search" transform="translate(18.000000, 65.000000)">
                <path d="M6.82015013,36.9581475 C10.0561546,36.9581475 12.6856678,39.5911756 12.6856678,42.8236651 C12.6856678,46.0561546 10.0561546,48.6926977 6.82015013,48.6926977 C3.58734113,48.6926977 0.954472718,46.0598293 0.954472718,42.8236651 C0.954472718,39.5873411 3.58734113,36.9581475 6.82015013,36.9581475 Z M11.9724495,47.2982153 C13.0157549,46.0988134 13.6473302,44.5338553 13.6473302,42.8236651 C13.6473302,39.0588182 10.584997,36 6.8236651,36 C3.05865847,36 0,39.0621734 0,42.8236651 C0,46.584997 3.06217344,49.6473302 6.8236651,49.6473302 C8.53385525,49.6473302 10.0988134,49.0157549 11.2982153,47.9726092 L15.1872043,51.8615983 C15.279552,51.953946 15.403854,52.003475 15.5244812,52.003475 C15.6451084,52.003475 15.7692505,51.9574609 15.8615983,51.8615983 C16.0461339,51.6770626 16.0461339,51.3718998 15.8615983,51.1873641 L11.9724495,47.2982153 Z" id="ic_search"></path>
            </g>
        </g>
    </g>
</svg>
